<?xml version="1.0" standalone="no"?>
<!DOCTYPE svg PUBLIC "-//W3C//DTD SVG 20010904//EN"
 "http://www.w3.org/TR/2001/REC-SVG-20010904/DTD/svg10.dtd">
<svg version="1.0" xmlns="http://www.w3.org/2000/svg"
 width="512.000000pt" height="512.000000pt" viewBox="0 0 512.000000 512.000000"
 preserveAspectRatio="xMidYMid meet">
<metadata>
Created by potrace 1.14, written by Peter Selinger 2001-2017
</metadata>
<g transform="translate(0.000000,512.000000) scale(0.100000,-0.100000)"
fill="#000000" stroke="none">
<path d="M393 4230 c-13 -5 -23 -8 -23 -6 0 3 -26 -8 -57 -24 -89 -43 -147
-100 -190 -188 l-38 -76 0 -1375 0 -1376 32 -67 c41 -88 113 -160 201 -201
l67 -32 2149 -3 c1884 -2 2157 0 2208 13 131 33 243 142 282 275 14 49 16 193
14 1410 l-3 1355 -34 72 c-41 89 -105 152 -198 196 l-68 32 -2160 2 c-1273 1
-2169 -2 -2182 -7z m4323 -165 c55 -16 112 -66 140 -123 18 -35 19 -93 21
-1367 2 -1008 0 -1339 -9 -1369 -7 -21 -31 -60 -55 -86 -79 -88 134 -80 -2251
-80 -1605 0 -2124 3 -2154 12 -22 6 -62 32 -89 56 -85 76 -79 -29 -79 1455 0
999 3 1319 12 1351 17 55 100 139 153 153 27 8 716 11 2151 12 1828 1 2117 -1
2160 -14z"/>
<path d="M575 3913 c-34 -8 -110 -64 -132 -98 -43 -66 -44 -81 -41 -720 3
-566 4 -612 21 -642 26 -46 99 -108 145 -121 28 -9 225 -12 709 -12 769 0 742
-3 816 80 26 28 49 67 56 92 9 32 11 203 9 653 -3 679 2 629 -74 707 -67 69
-55 68 -813 67 -372 -1 -685 -3 -696 -6z m1373 -159 c52 -14 52 -17 52 -641 0
-554 -1 -579 -20 -603 l-19 -25 -666 -3 c-739 -3 -718 -4 -730 61 -3 17 -5
290 -3 605 l3 573 25 19 c24 19 49 20 680 20 360 0 665 -3 678 -6z"/>
<path d="M980 3673 c-44 -15 -93 -46 -120 -75 -36 -40 -63 -115 -58 -163 2
-30 -2 -39 -25 -54 -124 -81 -170 -257 -104 -401 16 -35 72 -100 104 -121 23
-15 27 -25 25 -54 -8 -82 53 -181 136 -221 44 -22 135 -27 177 -10 23 9 40 9
75 0 60 -16 106 -17 166 -1 43 11 57 11 90 -1 22 -7 60 -11 89 -9 128 12 210
95 222 226 4 42 11 60 27 71 41 28 84 80 107 127 19 39 23 64 23 133 0 106
-21 156 -98 231 -48 48 -54 59 -59 104 -9 91 -56 163 -130 200 -48 24 -135 30
-177 13 -25 -11 -43 -12 -65 -5 -48 15 -153 17 -198 3 -33 -9 -49 -9 -77 1
-36 12 -103 16 -130 6z m113 -173 c45 -24 63 -25 102 -4 47 25 113 26 169 2
41 -18 53 -20 77 -10 16 7 42 17 57 23 67 28 122 -46 88 -118 -26 -54 -2 -106
56 -118 17 -4 47 -24 68 -45 41 -41 57 -95 45 -151 -9 -39 -74 -105 -113 -114
-60 -13 -77 -59 -51 -141 10 -35 10 -43 -5 -66 -25 -38 -67 -45 -117 -19 -48
26 -63 26 -114 1 -47 -22 -123 -20 -160 4 -30 20 -79 21 -94 2 -20 -24 -66
-29 -100 -12 -34 18 -52 75 -32 100 19 22 16 84 -4 106 -10 11 -35 25 -56 30
-71 19 -121 111 -104 191 9 39 74 105 113 114 59 13 80 68 51 136 -15 39 -4
75 29 93 36 20 51 20 95 -4z"/>
<path d="M2495 3913 c-34 -8 -110 -64 -131 -97 -45 -69 -44 -42 -43 -1265 1
-1308 -5 -1205 75 -1284 70 -70 24 -67 1124 -67 1123 0 1057 -5 1132 79 24 27
50 67 56 89 9 29 12 330 12 1189 0 1289 4 1216 -71 1291 -77 76 -13 72 -1133
71 -551 -1 -1010 -3 -1021 -6z m2042 -176 c17 -17 18 -79 21 -1160 1 -628 0
-1152 -3 -1164 -13 -55 19 -54 -1049 -51 -931 3 -986 4 -1003 21 -17 17 -18
79 -21 1160 -1 628 0 1152 3 1164 13 54 -22 53 1047 50 933 -2 988 -3 1005
-20z"/>
<path d="M3032 3420 c-227 -60 -406 -246 -457 -475 -20 -90 -16 -284 8 -370
35 -123 96 -237 176 -325 l40 -45 -24 -25 c-39 -41 -54 -90 -51 -162 8 -169
150 -315 323 -334 71 -7 119 5 165 44 34 29 67 93 68 132 0 16 19 44 57 82
l57 58 126 0 126 0 57 -58 c38 -38 57 -66 57 -82 1 -34 32 -100 61 -127 77
-71 228 -65 340 13 152 105 208 337 104 434 l-24 22 58 72 c94 115 137 203
166 342 21 97 14 298 -13 381 -69 216 -253 384 -472 429 -99 21 -275 14 -387
-16 l-82 -21 -68 22 c-98 31 -308 36 -411 9z m272 -146 c15 -6 12 -11 -19 -37
-52 -42 -131 -151 -171 -233 -58 -122 -72 -201 -73 -439 l-2 -210 -39 -40 -40
-39 -63 64 c-120 123 -168 236 -173 410 -2 63 1 135 7 160 19 87 66 170 132
234 66 65 124 98 210 120 57 15 202 21 231 10z m636 -4 c91 -17 179 -64 242
-130 106 -109 140 -205 134 -380 -5 -184 -55 -301 -180 -425 -82 -81 -184
-137 -291 -160 -42 -9 -136 -14 -258 -15 l-192 0 -99 99 -98 99 4 218 c4 169
9 232 22 274 48 150 173 299 308 364 41 20 101 42 134 49 75 18 203 21 274 7z
m-756 -1129 l59 -60 -51 -56 c-47 -51 -72 -102 -72 -146 0 -28 -27 -42 -67
-34 -96 18 -158 84 -170 180 -5 42 -4 44 24 51 89 20 106 28 155 74 29 27 55
49 58 50 3 0 32 -27 64 -59z m941 -61 c19 0 25 -7 30 -33 9 -45 -18 -107 -63
-149 -41 -38 -60 -47 -113 -54 -42 -6 -55 5 -63 61 -4 22 -17 56 -30 76 -14
20 -19 36 -13 36 17 0 145 43 176 59 14 8 32 12 39 9 8 -3 24 -5 37 -5z"/>
<path d="M564 2147 c-53 -20 -100 -58 -130 -106 l-29 -46 0 -310 c0 -346 0
-347 71 -418 68 -68 58 -67 809 -67 745 0 728 -1 797 65 71 69 73 77 76 393 3
326 -2 361 -65 426 -76 78 -34 74 -808 74 -506 1 -698 -3 -721 -11z m1413
-170 c16 -16 18 -42 18 -298 l0 -280 -25 -19 c-24 -19 -49 -20 -680 -20 -360
0 -665 3 -678 6 -47 13 -52 43 -52 314 0 257 6 298 42 313 7 3 315 5 685 4
631 -2 673 -3 690 -20z"/>
<path d="M720 1760 l0 -80 80 0 80 0 0 80 0 80 -80 0 -80 0 0 -80z"/>
<path d="M1200 1760 l0 -80 80 0 80 0 0 80 0 80 -80 0 -80 0 0 -80z"/>
<path d="M1680 1760 l0 -80 80 0 80 0 0 80 0 80 -80 0 -80 0 0 -80z"/>
<path d="M960 1600 l0 -80 80 0 80 0 0 80 0 80 -80 0 -80 0 0 -80z"/>
<path d="M1440 1600 l0 -80 80 0 80 0 0 80 0 80 -80 0 -80 0 0 -80z"/>
</g>
</svg>
